HIERARCHY
ROOT Hips
{
	OFFSET 0.000000 0.000000 0.000000 
	CHANNELS 6 Xposition Yposition Zposition Zrotation Yrotation Xrotation
	JOINT LeftUpLeg
	{
		OFFSET 1.363060 -1.794630 0.839290 
		CHANNELS 3 Zrotation Yrotation Xrotation
		JOINT LeftLeg
		{
			OFFSET 2.448110 -6.726130 0.000000 
			CHANNELS 3 Zrotation Yrotation Xrotation
			JOINT LeftFoot
			{
				OFFSET 2.562200 -7.039590 0.000000 
				CHANNELS 3 Zrotation Yrotation Xrotation
				JOINT LeftToeBase
				{
					OFFSET 0.157640 -0.433110 2.322550 
					CHANNELS 3 Zrotation Yrotation Xrotation
					End Site
					{
						OFFSET 0.000000 0.000000 0.000000 
					}
				}
			}
		}
	}
	JOINT RightUpLeg
	{
		OFFSET -1.305520 -1.794630 0.839290 
		CHANNELS 3 Zrotation Yrotation Xrotation
		JOINT RightLeg
		{
			OFFSET -2.542530 -6.985550 0.000000 
			CHANNELS 3 Zrotation Yrotation Xrotation
			JOINT RightFoot
			{
				OFFSET -2.568260 -7.056230 0.000000 
				CHANNELS 3 Zrotation Yrotation Xrotation
				JOINT RightToeBase
				{
					OFFSET -0.164730 -0.452590 2.363150 
					CHANNELS 3 Zrotation Yrotation Xrotation
					End Site
					{
						OFFSET 0.000000 0.000000 0.000000 
					}
				}
			}
		}
	}
	JOINT Spine
	{
		OFFSET 0.028270 2.035590 -0.193380 
		CHANNELS 3 Zrotation Yrotation Xrotation
		JOINT Spine1
		{
			OFFSET 0.056720 2.048850 -0.042750 
			CHANNELS 3 Zrotation Yrotation Xrotation
			JOINT Neck1
			{
				OFFSET -0.054170 1.746240 0.172020 
				CHANNELS 3 Zrotation Yrotation Xrotation
				JOINT Head
				{
					OFFSET 0.104070 1.761360 -0.123970 
					CHANNELS 3 Zrotation Yrotation Xrotation
					End Site
					{
						OFFSET 0.000000 0.000000 0.000000 
					}
				}
			}
			JOINT LeftArm
			{
				OFFSET 3.362410 1.200890 -0.311210 
				CHANNELS 3 Zrotation Yrotation Xrotation
				JOINT LeftForeArm
				{
					OFFSET 4.983000 -0.000000 -0.000000 
					CHANNELS 3 Zrotation Yrotation Xrotation
					JOINT LeftHand
					{
						OFFSET 3.483560 -0.000000 -0.000000 
						CHANNELS 3 Zrotation Yrotation Xrotation
						JOINT LeftHandIndex1
						{
							OFFSET 0.715260 -0.000000 -0.000000 
							CHANNELS 3 Zrotation Yrotation Xrotation
							End Site
							{
								OFFSET 0.000000 0.000000 0.000000 
							}
						}
					}
				}
			}
			JOINT RightArm
			{
				OFFSET -3.136600 1.374050 -0.404650 
				CHANNELS 3 Zrotation Yrotation Xrotation
				JOINT RightForeArm
				{
					OFFSET -5.241900 -0.000000 -0.000000 
					CHANNELS 3 Zrotation Yrotation Xrotation
					JOINT RightHand
					{
						OFFSET -3.444170 -0.000000 -0.000000 
						CHANNELS 3 Zrotation Yrotation Xrotation
						JOINT RightHandIndex1
						{
							OFFSET -0.622530 -0.000000 -0.000000 
							CHANNELS 3 Zrotation Yrotation Xrotation
							End Site
							{
								OFFSET 0.000000 0.000000 0.000000 
							}
						}
					}
				}
			}
		}
	}
}
MOTION
Frames: 18
Frame Time: 0.041667
-0.613165 18.373078 5.604663 -4.212834 -4.469906 0.112337 -10.118936 -8.942520 -6.878645 1.140039 7.191219 24.191696 -1.079987 9.042435 -16.796927 8.125400 -16.210700 -53.013100 2.679955 2.032519 -1.381164 0.041496 0.942269 1.484174 0.356973 -0.666852 5.856925 0.000000 0.000000 0.000000 -7.212075 1.215402 38.353451 2.805676 0.364967 -16.103852 4.903710 0.426830 -8.741399 1.280200 -0.063000 0.144000 -77.701240 -7.888822 45.443911 138.757446 -45.464050 -100.848870 -0.954191 1.151704 -14.357696 -7.125000 0.000000 0.000000 21.951317 29.940548 3.979932 -146.677017 39.584508 -104.878566 -1.813056 -0.122783 -28.153234 7.125000 0.000000 0.000000 
-0.612086 18.373176 5.604663 -4.233294 -4.446526 0.112894 -10.106453 -8.939763 -6.887630 1.141801 7.191435 24.194919 -1.081582 9.036009 -16.763337 8.126800 -16.211700 -53.018100 2.681261 2.031861 -1.381800 0.041403 0.941475 1.483773 0.356772 -0.667751 5.856832 0.000000 0.000000 0.000000 -7.104422 1.196607 38.339738 2.778114 0.368015 -16.075386 4.885590 0.417055 -8.841873 1.274900 -0.071100 0.115300 -77.714866 -7.872549 45.440596 138.784375 -45.447696 -100.867353 -0.952396 1.154993 -14.358775 -7.125000 0.000000 0.000000 22.163253 29.842256 4.301836 -146.699590 39.539542 -104.941270 -1.762500 -0.106319 -27.940395 7.125000 0.000000 0.000000 
-0.611204 18.373666 5.604075 -4.246240 -4.418957 0.116620 -10.102991 -8.942426 -6.900759 1.143531 7.192565 24.200185 -1.089747 9.051286 -16.718124 8.147000 -16.226300 -53.090500 2.682473 2.031077 -1.382134 0.041335 0.940670 1.483313 0.356574 -0.668693 5.856772 0.000000 0.000000 0.000000 -7.007885 1.170625 38.311150 2.766450 0.368672 -16.076982 4.765247 0.399575 -8.886731 1.242200 -0.079400 0.100700 -77.728740 -7.845988 45.447213 138.804020 -45.436435 -100.881572 -0.953105 1.155436 -14.316892 -7.125000 0.000000 0.000000 22.357653 29.780352 4.611802 -146.728259 39.493050 -105.010420 -1.710723 -0.084431 -27.546193 7.125000 0.000000 0.000000 
-0.610812 18.373666 5.603584 -4.272114 -4.400678 0.113882 -10.083238 -8.940403 -6.906834 1.145530 7.193315 24.203559 -1.085153 9.024400 -16.693759 8.148500 -16.227400 -53.096000 2.683506 2.030333 -1.382121 0.041265 0.940001 1.482894 0.356457 -0.669507 5.856786 0.000000 0.000000 0.000000 -6.905371 1.151827 38.280839 2.751571 0.374557 -16.119448 4.538200 0.386675 -8.718453 1.178100 -0.075900 0.148600 -77.748733 -7.819881 45.482087 138.820481 -45.427045 -100.897100 -0.951371 1.151457 -14.305406 -7.125000 0.000000 0.000000 22.510180 29.731230 4.889011 -146.676946 39.499971 -105.034948 -1.634309 -0.068064 -26.498458 7.125000 0.000000 0.000000 
-0.610125 18.373176 5.603584 -4.280870 -4.379942 0.091015 -10.081969 -8.895522 -6.904139 1.148734 7.191404 24.204510 -1.067016 8.946391 -16.670902 8.142700 -16.223200 -53.075000 2.685240 2.029537 -1.383045 0.041136 0.938983 1.482381 0.356195 -0.670662 5.856670 0.000000 0.000000 0.000000 -6.785150 1.123668 38.286447 2.728960 0.376863 -16.131163 4.499693 0.386054 -8.523920 1.174700 -0.070200 0.206300 -77.763013 -7.795550 45.460928 138.835097 -45.416759 -100.911093 -0.948507 1.149135 -14.289285 -7.125000 0.000000 0.000000 22.630439 29.711763 5.178134 -146.573730 39.534762 -105.041906 -1.531066 -0.050961 -24.935745 7.125000 0.000000 0.000000 
-0.609439 18.372784 5.603486 -4.260436 -4.346158 0.050749 -10.120363 -8.877202 -6.870925 1.150018 7.187358 24.203875 -1.062498 8.925745 -16.660468 8.167400 -16.241000 -53.163200 2.687636 2.028608 -1.384912 0.040980 0.937546 1.481733 0.355770 -0.672228 5.856386 0.000000 0.000000 0.000000 -6.656320 1.084946 38.321262 2.714593 0.375916 -16.126736 4.551768 0.366289 -8.263753 1.199400 -0.074000 0.285700 -77.771782 -7.778782 45.419508 138.830036 -45.418773 -100.907607 -0.950796 1.147796 -14.307113 -7.125000 0.000000 0.000000 22.766312 29.720971 5.487249 -146.510312 39.548697 -105.066366 -1.448654 -0.026593 -23.517752 7.125000 0.000000 0.000000 
-0.608949 18.372784 5.603290 -4.240166 -4.319512 0.022585 -10.150590 -8.899600 -6.835524 1.148940 7.184546 24.199674 -1.066876 8.943010 -16.661063 8.172200 -16.244500 -53.180600 2.688335 2.028559 -1.385528 0.040893 0.937280 1.481666 0.355707 -0.672502 5.856343 0.000000 0.000000 0.000000 -6.610013 1.080552 38.346481 2.685983 0.378858 -16.111283 4.723309 0.384967 -8.036559 1.247700 -0.060900 0.356300 -77.745721 -7.768546 45.424457 138.806284 -45.431743 -100.888376 -0.956250 1.147169 -14.337005 -7.125000 0.000000 0.000000 22.989237 29.671329 5.757545 -146.487782 39.544183 -105.084671 -1.414061 -0.006103 -22.877048 7.125000 0.000000 0.000000 
-0.608263 18.372588 5.603584 -4.234987 -4.313191 0.016488 -10.157972 -8.897598 -6.829258 1.147728 7.183302 24.194584 -1.073156 8.962670 -16.647317 8.156900 -16.233400 -53.125800 2.688192 2.028787 -1.385218 0.040846 0.937558 1.481814 0.355829 -0.672214 5.856462 0.000000 0.000000 0.000000 -6.598406 1.087569 38.346159 2.650803 0.381369 -16.090071 4.845546 0.425545 -7.866491 1.277200 -0.037400 0.407500 -77.706239 -7.723152 45.433341 138.804110 -45.430596 -100.886703 -0.959411 1.147249 -14.347836 -7.125000 0.000000 0.000000 23.251969 29.579556 6.008940 -146.468556 39.536963 -105.096844 -1.389760 0.011242 -22.857113 7.125000 0.000000 0.000000 
-0.607380 18.372098 5.604467 -4.244853 -4.316898 0.000004 -10.162732 -8.907085 -6.799973 1.146544 7.182689 24.195851 -1.081686 9.006062 -16.678634 8.165700 -16.239800 -53.157200 2.689283 2.028246 -1.385561 0.040753 0.936948 1.481489 0.355700 -0.672927 5.856437 0.000000 0.000000 0.000000 -6.520258 1.069587 38.332047 2.624331 0.382134 -16.087251 4.900565 0.413797 -7.736563 1.293500 -0.041300 0.442600 -77.719301 -7.678686 45.413054 138.822339 -45.417609 -100.902272 -0.957670 1.146647 -14.341593 -7.125000 0.000000 0.000000 23.457670 29.542276 6.305000 -146.436761 39.535896 -105.116675 -1.344227 0.036773 -22.712905 7.125000 0.000000 0.000000 
-0.607086 18.371804 5.604761 -4.248501 -4.304472 -0.012161 -10.167398 -8.950734 -6.772296 1.146252 7.184083 24.201276 -1.078032 9.009032 -16.727656 8.167000 -16.240700 -53.162100 2.689887 2.027737 -1.385637 0.040748 0.936456 1.481218 0.355608 -0.673486 5.856374 0.000000 0.000000 0.000000 -6.486343 1.063665 38.293603 2.617624 0.385866 -16.077207 4.852645 0.416993 -7.737052 1.277500 -0.040100 0.435700 -77.744547 -7.671907 45.387847 138.809988 -45.424279 -100.891481 -0.955645 1.147672 -14.289897 -7.125000 0.000000 0.000000 23.660160 29.492998 6.630279 -146.401203 39.530650 -105.144846 -1.288096 0.063668 -21.948939 7.125000 0.000000 0.000000 
-0.606890 18.371608 5.605447 -4.264988 -4.296596 -0.013963 -10.149716 -8.939964 -6.783085 1.148838 7.187474 24.209240 -1.070337 8.972297 -16.706432 8.160300 -16.235900 -53.138100 2.689705 2.027904 -1.385004 0.040692 0.936784 1.481354 0.355756 -0.673175 5.856558 0.000000 0.000000 0.000000 -6.459271 1.072728 38.273139 2.571790 0.391584 -16.056551 5.046324 0.464779 -7.712658 1.331700 -0.020000 0.439000 -77.746789 -7.696341 45.372826 138.774150 -45.444088 -100.861569 -0.955586 1.149163 -14.261195 -7.125000 0.000000 0.000000 23.926181 29.409449 6.958070 -146.349214 39.532749 -105.163970 -1.228553 0.082784 -20.838041 7.125000 0.000000 0.000000 
-0.606400 18.370823 5.607310 -4.271796 -4.301635 -0.042211 -10.152875 -8.905638 -6.764069 1.150940 7.190051 24.220342 -1.069745 8.972661 -16.712543 8.176700 -16.247700 -53.196800 2.690338 2.028017 -1.385119 0.040530 0.936806 1.481398 0.355822 -0.673188 5.856701 0.000000 0.000000 0.000000 -6.379906 1.075865 38.294438 2.503383 0.400983 -16.054406 5.424697 0.470622 -7.469745 1.448600 -0.017500 0.512500 -77.763130 -7.725002 45.372292 138.751111 -45.455644 -100.843556 -0.954602 1.149048 -14.318797 -7.125000 0.000000 0.000000 24.237468 29.308471 7.304308 -146.297031 39.539163 -105.178268 -1.173060 0.098033 -20.067120 7.125000 0.000000 0.000000 
-0.605910 18.370333 5.608585 -4.248958 -4.280261 -0.068468 -10.178385 -8.905080 -6.738736 1.152553 7.193548 24.231959 -1.067587 8.970988 -16.728697 8.190100 -16.257300 -53.244700 2.690333 2.027928 -1.385105 0.040563 0.936702 1.481374 0.355869 -0.673274 5.856648 0.000000 0.000000 0.000000 -6.390158 1.089679 38.278168 2.503678 0.410438 -16.060693 5.117855 0.408189 -7.148810 1.358900 -0.033800 0.604900 -77.782880 -7.713319 45.399830 138.707849 -45.482281 -100.808285 -0.954071 1.148623 -14.397632 -7.125000 0.000000 0.000000 24.518370 29.175224 7.635149 -146.272718 39.534936 -105.190737 -1.145603 0.117151 -19.914283 7.125000 0.000000 0.000000 
-0.604831 18.370235 5.609467 -4.231416 -4.264015 -0.069504 -10.188718 -8.889868 -6.749638 1.155331 7.198945 24.242103 -1.064962 8.946451 -16.683443 8.187000 -16.255100 -53.233600 2.688953 2.028185 -1.383644 0.040695 0.937378 1.481637 0.356154 -0.672553 5.856809 0.000000 0.000000 0.000000 -6.475722 1.113755 38.218403 2.516174 0.414466 -16.064277 4.631387 0.343921 -6.841029 1.211300 -0.049600 0.686700 -77.793619 -7.670981 45.422405 138.648885 -45.517981 -100.760318 -0.953477 1.148473 -14.408060 -7.125000 0.000000 0.000000 24.769121 29.099164 7.971172 -146.229945 39.551672 -105.178186 -1.129868 0.142260 -19.991828 7.125000 0.000000 0.000000 
-0.603458 18.369843 5.610349 -4.228615 -4.281858 -0.078785 -10.193712 -8.882412 -6.740817 1.156824 7.203644 24.250826 -1.061772 8.933058 -16.677499 8.179000 -16.249400 -53.205000 2.687688 2.028651 -1.381715 0.040703 0.938370 1.482015 0.356567 -0.671565 5.857213 0.000000 0.000000 0.000000 -6.513725 1.136629 38.176806 2.478444 0.421320 -16.098098 4.568884 0.306032 -6.280777 1.193800 -0.053100 0.841000 -77.811966 -7.623386 45.432784 138.644976 -45.520227 -100.756787 -0.951706 1.148002 -14.423225 -7.125000 0.000000 0.000000 25.128489 29.027971 8.397440 -146.195371 39.559185 -105.187678 -1.095571 0.172378 -19.858803 7.125000 0.000000 0.000000 
-0.602282 18.369353 5.611134 -4.247390 -4.277098 -0.103684 -10.191143 -8.937361 -6.694328 1.156358 7.205605 24.257547 -1.060729 8.947968 -16.731791 8.171300 -16.243800 -53.177200 2.688335 2.028385 -1.381092 0.040556 0.938291 1.481884 0.356673 -0.671773 5.857465 0.000000 0.000000 0.000000 -6.431559 1.117427 38.173520 2.425937 0.421273 -16.161079 4.501334 0.285498 -5.310668 1.185500 -0.036900 1.109300 -77.851761 -7.578876 45.414564 138.657980 -45.514520 -100.765245 -0.949775 1.147754 -14.509294 -7.125000 0.000000 0.000000 25.532126 28.933977 8.879822 -146.205822 39.536095 -105.237159 -1.054398 0.208284 -19.478763 7.125000 0.000000 0.000000 
-0.601792 18.368470 5.612604 -4.264849 -4.235465 -0.132980 -10.196683 -8.964166 -6.656157 1.158724 7.205025 24.266463 -1.055953 8.932835 -16.742878 8.172300 -16.244500 -53.180800 2.691599 2.026718 -1.382508 0.040329 0.936328 1.480837 0.356181 -0.674035 5.857286 0.000000 0.000000 0.000000 -6.243563 1.038879 38.178467 2.401016 0.408813 -16.215521 4.292430 0.275294 -4.124147 1.144800 -0.010700 1.431100 -77.910298 -7.504953 45.354520 138.650304 -45.521191 -100.756642 -0.948618 1.147468 -14.604803 -7.125000 0.000000 0.000000 25.904912 28.895327 9.418462 -146.184277 39.538406 -105.264915 -1.009632 0.240321 -19.071701 7.125000 0.000000 0.000000 
-0.601596 18.367882 5.614761 -4.296524 -4.195323 -0.160290 -10.199444 -8.950605 -6.629189 1.163338 7.203704 24.278623 -1.045601 8.889188 -16.736484 8.181500 -16.251200 -53.213900 2.697138 2.023878 -1.385021 0.039954 0.932962 1.479054 0.355297 -0.677901 5.856942 0.000000 0.000000 0.000000 -5.914041 0.919011 38.177896 2.359511 0.395460 -16.311394 4.169390 0.272300 -2.573399 1.137700 0.025100 1.854500 -78.024508 -7.368514 45.308804 138.643695 -45.528081 -100.748229 -0.945768 1.146191 -14.705099 -7.125000 0.000000 0.000000 26.310255 28.881299 10.075277 -146.137695 39.575840 -105.251755 -0.988767 0.253129 -18.886252 7.125000 0.000000 0.000000 
